<?xml version="1.0" encoding="utf-8"?>
<!-- Generator: Adobe Illustrator 26.5.1, SVG Export Plug-In . SVG Version: 6.00 Build 0)  -->
<svg version="1.1" id="Layer_1" xmlns="http://www.w3.org/2000/svg" xmlns:xlink="http://www.w3.org/1999/xlink" x="0px" y="0px"
	 viewBox="0 0 40 20" style="enable-background:new 0 0 40 20;" xml:space="preserve">
<style type="text/css">
	.st0{fill:#44C1C5;}
	.st1{fill:#FFFFFF;}
</style>
<path class="st0" d="M19.27,7.03h-3.25c-0.8,0-1.46-0.65-1.46-1.46v0c0-0.81,0.65-1.46,1.46-1.46h3.25V1.2h-3.14
	c-3.14,0-4.89,1.86-4.89,4.37c0,2.53,1.75,4.39,4.89,4.39h3.14V7.03z"/>
<path class="st1" d="M20.73,4.12h3.25c0.8,0,1.46,0.65,1.46,1.46v0c0,0.81-0.65,1.46-1.46,1.46h-3.25v2.92h3.14
	c3.14,0,4.89-1.86,4.89-4.37c0-2.53-1.75-4.39-4.89-4.39h-3.14V4.12z"/>
<path class="st0" d="M1.02,16.66v-1.77c0-1.34,0.5-2.12,2.33-2.12c0.52,0,1.09,0.08,1.39,0.18l-0.08,0.84
	c-0.46-0.1-0.88-0.13-1.28-0.13c-1.01,0-1.34,0.29-1.34,1.2v1.84c0,0.91,0.34,1.2,1.34,1.2c0.41,0,0.83-0.04,1.28-0.13l0.1,0.84
	c-0.3,0.1-0.89,0.18-1.4,0.18C1.47,18.78,1.02,18.01,1.02,16.66z"/>
<path class="st1" d="M20.73,16.68v-1.77c0-1.34,0.5-2.12,2.33-2.12c0.52,0,1.09,0.08,1.39,0.18l-0.08,0.84
	c-0.46-0.1-0.88-0.13-1.28-0.13c-1.01,0-1.34,0.29-1.34,1.2v1.84c0,0.91,0.34,1.2,1.34,1.2c0.41,0,0.83-0.04,1.28-0.13l0.1,0.84
	c-0.3,0.1-0.89,0.18-1.4,0.18C21.19,18.8,20.73,18.02,20.73,16.68z"/>
<path class="st0" d="M7.85,18.8c-1.7,0-2.37-0.97-2.37-2.19v-1.62c0-1.22,0.67-2.19,2.37-2.19s2.37,0.97,2.37,2.19v1.62
	C10.22,17.83,9.55,18.8,7.85,18.8z M7.85,13.67c-0.91,0-1.37,0.43-1.37,1.28v1.7c0,0.85,0.46,1.28,1.37,1.28s1.37-0.43,1.37-1.28
	v-1.7C9.21,14.1,8.76,13.67,7.85,13.67z"/>
<path class="st0" d="M18.26,18.71v-4.42c0-0.38-0.19-0.54-0.56-0.54c-0.48,0-1.33,0.26-1.95,0.59v4.38h-1.01v-4.42
	c0-0.38-0.19-0.54-0.56-0.54c-0.43,0-1.31,0.23-1.93,0.55v4.41h-1.01v-5.84h0.82l0.1,0.5c0.65-0.31,1.63-0.59,2.32-0.59
	c0.6,0,0.95,0.23,1.11,0.62c0.7-0.34,1.68-0.62,2.41-0.62c0.93,0,1.27,0.59,1.27,1.49v4.44H18.26z"/>
<polygon class="st1" points="25.33,12.88 28.76,12.88 28.76,13.79 26.34,13.79 26.34,15.3 28.6,15.3 28.6,16.2 26.34,16.2 
	26.34,17.81 28.76,17.81 28.76,18.72 25.33,18.72 "/>
<path class="st1" d="M33.06,16.63c0.61-0.22,0.88-0.71,0.88-1.41v-0.76c0-1.03-0.5-1.58-1.86-1.58h-2.3v5.84h1.01v-1.96h1.05
	l1.34,1.96h1.32L33.06,16.63z M32.94,15.12c0,0.49-0.19,0.71-0.8,0.71h-1.35v-2.04h1.35c0.59,0,0.8,0.2,0.8,0.69V15.12z"/>
<polygon class="st1" points="36.29,13.79 34.6,13.79 34.6,12.88 38.98,12.88 38.98,13.79 37.3,13.79 37.3,18.72 36.29,18.72 "/>
</svg>
