<?xml version="1.0" encoding="utf-8"?>
<!-- Generator: Adobe Illustrator 26.5.1, SVG Export Plug-In . SVG Version: 6.00 Build 0)  -->
<svg version="1.1" id="Layer_1" xmlns="http://www.w3.org/2000/svg" xmlns:xlink="http://www.w3.org/1999/xlink" x="0px" y="0px"
	 viewBox="0 0 100 50" style="enable-background:new 0 0 100 50;" xml:space="preserve">
<style type="text/css">
	.st0{fill:#44C1C5;}
	.st1{fill:#FFFFFF;}
</style>
<path class="st0" d="M46.36,32.38H29.9c-4.07,0-7.37-3.31-7.37-7.4v0c0-4.08,3.3-7.4,7.37-7.4h16.46V2.81H30.44
	c-15.92,0-24.76,9.42-24.76,22.15c0,12.81,8.84,22.23,24.76,22.23h15.92V32.38z"/>
<path class="st1" d="M53.75,17.62h16.46c4.07,0,7.37,3.31,7.37,7.4v0c0,4.08-3.3,7.4-7.37,7.4H53.75v14.78h15.91
	c15.92,0,24.77-9.41,24.77-22.14c0-12.81-8.85-22.23-24.77-22.23H53.75V17.62z"/>
</svg>
