<?xml version="1.0" encoding="utf-8"?>
<!-- Generator: Adobe Illustrator 26.5.1, SVG Export Plug-In . SVG Version: 6.00 Build 0)  -->
<svg version="1.1" id="Layer_1" xmlns="http://www.w3.org/2000/svg" xmlns:xlink="http://www.w3.org/1999/xlink" x="0px" y="0px"
	 viewBox="0 0 1080 1080" style="enable-background:new 0 0 1080 1080;" xml:space="preserve">
<style type="text/css">
	.st0{fill:#48C1C4;}
	.st1{fill:#FFFFFF;}
</style>
<g>
	<path class="st0" d="M959.72,257.28h-41.78v51.74H875.1v-51.74H763.28v51.74h-42.84v-51.74h-41.78v69.59v44.57H401.1v-44.57v-69.59
		h-41.78v51.74h-42.84v-51.74H204.66v51.74h-42.84v-51.74h-41.78v69.59l22.74,41.95l-0.17,2.62h235.91l1.6,27.37H141.02
		l-20.98,359.05h277.54h3.52h35.75c0.29-71.4,2.15-202.82,7.63-226.85c3.79-16.93,16.69-36.29,29.71-51.06
		c8.26-9.96,23.82-22.99,37.76-31.27c13.88-8.66,26.15-12.57,26.17-12.75c0.09,0.2,12.36,4.14,26.22,12.78
		c13.93,8.28,29.46,21.29,37.71,31.24c13.01,14.77,25.92,34.13,29.71,51.06c5.48,24.03,7.34,155.45,7.63,226.85h39.27h0h281.06
		l-20.98-359.05H699.64l1.6-27.37h235.91l-0.17-2.62l22.74-41.95V257.28z"/>
	<g>
		<path class="st0" d="M522.27,162.04h-69.83c-19.48,0-31.15-16.41-31.15-31.19c0-14.82,11.28-30.92,31.15-30.92h69.83v-68h-66.34
			c-71.27,0-115.25,42.06-115.25,98.92c0,57.24,43.98,99.3,115.25,99.3h66.34V162.04z"/>
		<path class="st1" d="M557.46,100.03h69.83c19.48,0,31.18,16.41,31.18,31.2c0,14.82-11.3,30.9-31.18,30.9h-69.83v68.02h66.32
			c71.31,0,115.3-42.06,115.3-98.92c0-57.24-43.98-99.3-115.3-99.3h-66.32V100.03z"/>
	</g>
	<g>
		<path class="st0" d="M66.79,894.94c0,7.37,2.41,11.68,11.81,11.68c6.09,0,14.47-0.76,21.84-2.03l2.67,16.63
			c-8.38,1.77-16,2.67-24.5,2.67c-21.33,0-30.85-10.54-30.85-25.9v-35.3c0-15.36,9.52-25.9,30.85-25.9c8.5,0,16.12,0.89,24.5,2.67
			l-2.67,16.63c-7.36-1.27-15.74-2.03-21.84-2.03c-9.4,0-11.81,4.32-11.81,11.68V894.94z"/>
		<path class="st0" d="M152.87,898.24v24.37h-19.04v-24.37l-26.28-60.18h19.93l15.87,39.23l15.87-39.23h19.93L152.87,898.24z"/>
		<path class="st0" d="M223.46,922.61H187.4v-84.55h33.39c17.65,0,24.12,7.11,24.12,18.54v8.63c0,6.09-2.67,10.41-9.39,13.33
			c6.98,1.65,12.44,7.75,12.44,15.61v8.25C247.96,914.36,240.34,922.61,223.46,922.61z M225.87,859.39c0-3.68-2.29-5.97-7.62-5.97
			h-11.81v19.3h11.81c5.08,0,7.62-2.54,7.62-5.97V859.39z M228.92,894.69c0-4.7-2.92-7.11-8-7.11h-14.47v19.68h11.81
			c5.97,0,10.66-1.27,10.66-7.37V894.69z"/>
		<path class="st0" d="M260.03,922.61v-84.55h53.19v16.89h-34.15v15.49h31.48v16.88h-31.48v18.41h34.15v16.89H260.03z"/>
		<path class="st0" d="M358.04,896.34h-11.17v26.28h-19.04v-84.55h35.17c20.57,0,28.18,8.12,28.18,23.99v10.41
			c0,10.54-3.81,17.64-12.32,21.2l20.44,28.94h-22.6L358.04,896.34z M372.13,863.84c0-6.35-2.41-8.89-10.16-8.89h-15.11v24.88h15.11
			c8.12,0,10.16-2.92,10.16-9.27V863.84z"/>
		<path class="st1" d="M471.73,854.95v67.66h-19.04v-67.66h-22.72v-16.89h64.49v16.89H471.73z"/>
		<path class="st1" d="M596.41,922.61h-24.25l-14.22-64.24l-14.35,64.24h-24.25l-20.82-84.55h18.79l14.34,60.43l14.73-60.43h23.23
			l14.47,60.43l14.22-60.43h18.79L596.41,922.61z"/>
		<path class="st1" d="M626.63,922.61v-84.55h19.04v84.55H626.63z"/>
		<path class="st1" d="M662.82,922.61v-84.55h53.19v16.89h-34.15v15.49h31.48v16.88h-31.48v18.41h34.15v16.89H662.82z"/>
		<path class="st1" d="M760.83,896.34h-11.17v26.28h-19.04v-84.55h35.17c20.57,0,28.18,8.12,28.18,23.99v10.41
			c0,10.54-3.81,17.64-12.31,21.2l20.44,28.94h-22.6L760.83,896.34z M774.92,863.84c0-6.35-2.41-8.89-10.16-8.89h-15.11v24.88h15.11
			c8.12,0,10.16-2.92,10.16-9.27V863.84z"/>
		<path class="st1" d="M845,922.61h-32.76v-84.55H845c20.82,0,28.56,10.54,28.56,21.96v40.63
			C873.57,911.95,865.82,922.61,845,922.61z M854.52,865.23c0-6.6-2.29-10.28-11.81-10.28h-11.43v50.78h11.43
			c9.52,0,11.81-3.68,11.81-10.28V865.23z"/>
		<path class="st1" d="M907.97,907h37.45v15.61h-59.16v-15.49l37.2-53.45h-35.55v-15.61h56.87v15.61L907.97,907z"/>
		<path class="st1" d="M1032.01,922.61h-19.81l-4.57-16.51h-28.31l-4.57,16.51h-19.8l25.77-84.55h25.39L1032.01,922.61z
			 M983.64,890.24h19.42l-9.65-35.42L983.64,890.24z"/>
		<path class="st1" d="M203.37,961.5h49.76v9.77h-38.85v26.53h36.05v9.78h-36.05v28.69h38.97v9.78h-49.89V961.5z"/>
		<path class="st1" d="M282.34,974.07v71.98h-10.41V961.5h14.98l36.82,72.36V961.5h10.41v84.55h-14.98L282.34,974.07z"/>
		<path class="st1" d="M372.74,971.27h-25.26v-9.77h61.44v9.77h-25.26v74.78h-10.92V971.27z"/>
		<path class="st1" d="M422.25,961.5h49.77v9.77h-38.85v26.53h36.05v9.78h-36.05v28.69h38.98v9.78h-49.89V961.5z"/>
		<path class="st1" d="M522.42,1015.45h-20.69v30.6h-10.92V961.5h32.24c18.16,0,24.5,7.87,24.5,20.82v12.19
			c0,10.03-3.68,16.89-13.46,19.68l21.96,31.86H543.5L522.42,1015.45z M522.68,971.27h-20.95v34.53h20.95
			c10.41,0,13.96-2.92,13.96-11.17v-12.19C536.64,974.07,533.09,971.27,522.68,971.27z"/>
		<path class="st1" d="M571.05,961.5h30.6c18.15,0,24.5,7.87,24.5,20.82v12.57c0,13.08-6.35,20.95-24.5,20.95h-19.68v30.21h-10.92
			V961.5z M601.27,971.27h-19.3v34.79h19.3c10.41,0,13.96-2.92,13.96-11.17v-12.44C615.23,974.07,611.67,971.27,601.27,971.27z"/>
		<path class="st1" d="M673.38,1015.45h-20.69v30.6h-10.92V961.5h32.25c18.15,0,24.5,7.87,24.5,20.82v12.19
			c0,10.03-3.68,16.89-13.46,19.68l21.96,31.86h-12.57L673.38,1015.45z M673.63,971.27h-20.95v34.53h20.95
			c10.41,0,13.97-2.92,13.97-11.17v-12.19C687.6,974.07,684.04,971.27,673.63,971.27z"/>
		<path class="st1" d="M733.56,1046.05h-10.91V961.5h10.91V1046.05z"/>
		<path class="st1" d="M777.74,1047.32c-8.12,0-17.9-1.52-25.13-4.44l1.77-8.88c7.75,2.41,15.87,3.68,23.62,3.68
			c13.58,0,16.38-3.55,16.38-13.2c0-11.43-0.13-12.44-17.52-16.38c-20.44-4.57-22.85-8.5-22.85-26.02
			c0-14.73,6.09-21.84,27.04-21.84c7.37,0,16.12,1.02,22.85,2.79l-0.89,9.26c-6.73-1.52-14.73-2.41-21.71-2.41
			c-13.84,0-16.38,2.79-16.38,12.57c0,11.68,0,12.19,16.76,16.37c22.47,5.59,23.61,8.89,23.61,25.39
			C805.29,1038.94,800.97,1047.32,777.74,1047.32z"/>
		<path class="st1" d="M824.34,961.5h49.76v9.77h-38.85v26.53h36.05v9.78h-36.05v28.69h38.97v9.78h-49.89V961.5z"/>
	</g>
</g>
</svg>
